<svg height="480pt" viewBox="0 -7 480 479" width="480pt" xmlns="http://www.w3.org/2000/svg"><path d="m466.496094 310.050781c-14.898438-46.210937-57.902344-77.539062-106.453125-77.554687-48.554688-.019532-91.582031 31.277344-106.515625 77.476562-3.6875 11.136719-5.554688 22.796875-5.527344 34.527344 0 61.855469 50.144531 112 112 112s112-50.144531 112-112c.03125-11.703125-1.828125-23.335938-5.503906-34.449219zm0 0" fill="#78b9eb"/><path d="m368 72.5c0 17.671875-14.328125 32-32 32s-32-14.328125-32-32 14.328125-32 32-32 32 14.328125 32 32zm0 0" fill="#78b9eb"/><g fill="#1a6fb0"><path d="m480 8.5c0-4.417969-3.582031-8-8-8h-464c-4.417969 0-8 3.582031-8 8v304c0 4.417969 3.582031 8 8 8h234.398438c-1.613282 7.898438-2.417969 15.9375-2.398438 24-.050781 46.039062 26.246094 88.050781 67.679688 108.125 41.433593 20.074219 90.699218 14.671875 126.800781-13.902344 36.097656-28.578125 52.664062-75.285156 42.640625-120.222656 1.796875-1.476562 2.851562-3.671875 2.878906-6zm-458.398438 296 108.71875-195.761719 164.878907 134.960938c-22.355469 14.359375-39.296875 35.75-48.160157 60.800781zm338.398438 144c-57.414062-.054688-103.945312-46.585938-104-104-.023438-10.871094 1.703125-21.675781 5.121094-32 13.839844-42.917969 53.785156-72.003906 98.878906-72.003906s85.039062 29.085937 98.878906 72.003906c3.417969 10.324219 5.144532 21.128906 5.121094 32-.054688 57.414062-46.585938 103.945312-104 104zm104-163.601562c-30.640625-53.851563-97.363281-75.351563-153.679688-49.519532l-2.320312-1.917968 83.28125-62.402344 72.71875 72.722656zm0-63.679688-66.320312-66.398438c-2.824219-2.820312-7.296876-3.128906-10.480469-.71875l-91.917969 68.957032-162.242188-132.71875c-1.816406-1.5-4.207031-2.117188-6.523437-1.6875-2.316406.433594-4.324219 1.871094-5.476563 3.925781l-87.359374 157.203125-17.679688 31.839844v-265.121094h448zm0 0"/><path d="m336 32.5c-22.089844 0-40 17.910156-40 40s17.910156 40 40 40 40-17.910156 40-40-17.910156-40-40-40zm0 64c-13.253906 0-24-10.746094-24-24s10.746094-24 24-24 24 10.746094 24 24c-.039062 13.238281-10.761719 23.960938-24 24zm0 0"/><path d="m440 336.5v16h-72v64h-16v-64h-72v-16h72v-72h16v72zm0 0"/></g></svg>