<?xml version="1.0" encoding="iso-8859-1"?>
<!-- Generator: Adobe Illustrator 19.0.0, SVG Export Plug-In . SVG Version: 6.00 Build 0)  -->
<svg xmlns="http://www.w3.org/2000/svg" xmlns:xlink="http://www.w3.org/1999/xlink" version="1.1" id="Capa_1" x="0px" y="0px" viewBox="0 0 512 512" style="enable-background:new 0 0 512 512;" xml:space="preserve" width="512px" height="512px">
<g>
	<g>
		<g>
			<path d="M224,320c88.229,0,160-71.771,160-160S312.229,0,224,0S64,71.771,64,160S135.771,320,224,320z M229.333,170.667h-10.667     c-20.583,0-37.333-16.75-37.333-37.333c0-18.758,13.954-34.18,32-36.794V85.333c0-5.896,4.771-10.667,10.667-10.667     s10.667,4.771,10.667,10.667V96H256c5.896,0,10.667,4.771,10.667,10.667c0,5.896-4.771,10.667-10.667,10.667h-37.333     c-8.823,0-16,7.177-16,16c0,8.823,7.177,16,16,16h10.667c20.583,0,37.333,16.75,37.333,37.333c0,18.758-13.954,34.18-32,36.794     v11.206c0,5.896-4.771,10.667-10.667,10.667s-10.667-4.771-10.667-10.667V224H192c-5.896,0-10.667-4.771-10.667-10.667     c0-5.896,4.771-10.667,10.667-10.667h37.333c8.823,0,16-7.177,16-16C245.333,177.844,238.156,170.667,229.333,170.667z" fill="#1dc8cd"/>
			<path d="M426.667,405.333c-11.792,0-21.333,9.552-21.333,21.333v15.072L291.854,336.365c-7.625-7.031-19.125-7.625-27.313-1.427     l-71.313,53.469l-93.625-84.26c-8.771-7.885-22.229-7.156-30.125,1.583c-7.875,8.76-7.167,22.25,1.583,30.125l106.667,96     c7.583,6.833,18.958,7.302,27.063,1.208l71.083-53.302l96.46,89.573h-9.668c-11.792,0-21.333,9.552-21.333,21.333     S350.875,512,362.667,512h64c11.792,0,21.333-9.552,21.333-21.333v-64C448,414.885,438.458,405.333,426.667,405.333z" fill="#1dc8cd"/>
		</g>
	</g>
</g>
<g>
</g>
<g>
</g>
<g>
</g>
<g>
</g>
<g>
</g>
<g>
</g>
<g>
</g>
<g>
</g>
<g>
</g>
<g>
</g>
<g>
</g>
<g>
</g>
<g>
</g>
<g>
</g>
<g>
</g>
</svg>
