<?xml version="1.0" encoding="iso-8859-1"?>
<svg xmlns="http://www.w3.org/2000/svg" xmlns:xlink="http://www.w3.org/1999/xlink" version="1.1" viewBox="0 0 19.491 19.491" enable-background="new 0 0 19.491 19.491" width="512px" height="512px">
  <g fill-rule="evenodd">
    <path d="m14.475,5.282l-6.992,7.817-2.433-3.429c-0.155-0.22-0.462-0.273-0.682-0.116-0.221,0.157-0.273,0.462-0.116,0.683l2.788,3.929c0.086,0.122 0.223,0.197 0.372,0.206 0.009,0 0.018,0.001 0.027,0.001 0.139,0 0.272-0.059 0.365-0.163l7.401-8.274c0.18-0.202 0.163-0.511-0.038-0.692-0.202-0.181-0.512-0.164-0.692,0.038z" fill="#1dc8cd"/>
    <path d="m16.124,2.371c-4.066-3.517-10.236-3.07-13.753,0.996-3.517,4.066-3.07,10.236 0.996,13.753 4.066,3.517 10.236,3.07 13.753-0.996 3.517-4.066 3.07-10.236-0.996-13.753zm-.138,12.772c-2.976,3.44-8.196,3.819-11.637,0.843-3.441-2.976-3.819-8.197-0.843-11.637 2.976-3.44 8.196-3.819 11.637-0.843 3.44,2.975 3.818,8.196 0.843,11.637z" fill="#1dc8cd"/>
  </g>
</svg>
