<?xml version="1.0" encoding="UTF-8"?>
<!DOCTYPE svg PUBLIC "-//W3C//DTD SVG 1.1//EN" "http://www.w3.org/Graphics/SVG/1.1/DTD/svg11.dtd">
<svg xmlns="http://www.w3.org/2000/svg" version="1.1" width="179px" height="177px" style="shape-rendering:geometricPrecision; text-rendering:geometricPrecision; image-rendering:optimizeQuality; fill-rule:evenodd; clip-rule:evenodd" xmlns:xlink="http://www.w3.org/1999/xlink">
<g><path style="opacity:1" fill="#fffefe" d="M -0.5,-0.5 C 59.1667,-0.5 118.833,-0.5 178.5,-0.5C 178.5,58.5 178.5,117.5 178.5,176.5C 118.833,176.5 59.1667,176.5 -0.5,176.5C -0.5,117.5 -0.5,58.5 -0.5,-0.5 Z"/></g>
<g><path style="opacity:1" fill="#ffe222" d="M 7.5,3.5 C 24.17,3.3334 40.8367,3.50007 57.5,4C 60.3064,5.30508 61.1397,7.47175 60,10.5C 43.5946,27.4074 26.7613,43.7407 9.5,59.5C 7.61714,59.1243 6.11714,58.1243 5,56.5C 4.33333,39.8333 4.33333,23.1667 5,6.5C 6.04499,5.62656 6.87833,4.62656 7.5,3.5 Z"/></g>
<g><path style="opacity:1" fill="#ffdb0b" d="M 104.5,103.5 C 103.25,82.344 102.583,61.0107 102.5,39.5C 112.298,29.2016 122.298,19.0349 132.5,9C 147.093,-0.132817 159.259,2.36718 169,16.5C 172.664,25.19 171.997,33.5234 167,41.5C 146.299,62.3683 125.465,83.035 104.5,103.5 Z"/></g>
<g><path style="opacity:1" fill="#ffdf16" d="M 102.5,39.5 C 102.583,61.0107 103.25,82.344 104.5,103.5C 85.5,123.167 66.1667,142.5 46.5,161.5C 44.8525,140.356 44.1859,119.023 44.5,97.5C 63.5,77.8333 82.8333,58.5 102.5,39.5 Z"/></g>
<g><path style="opacity:1" fill="#ffe220" d="M 44.5,97.5 C 44.1859,119.023 44.8525,140.356 46.5,161.5C 39.2606,169.964 30.2606,172.464 19.5,169C 3.80837,159.602 0.641703,147.102 10,131.5C 21.3682,119.965 32.8682,108.631 44.5,97.5 Z"/></g>
<g><path style="opacity:1" fill="#ffda0a" d="M 164.5,114.5 C 167.368,114.085 169.535,115.085 171,117.5C 171.667,134.5 171.667,151.5 171,168.5C 170.5,169 170,169.5 169.5,170C 152.123,170.819 134.789,170.652 117.5,169.5C 115.062,167.344 114.895,165.011 117,162.5C 133.035,146.632 148.868,130.632 164.5,114.5 Z"/></g>
</svg>
